<svg id="Layer_1" data-name="Layer 1" xmlns="http://www.w3.org/2000/svg" width="40" height="40" viewBox="0 0 40 40">
  <defs>
    <style>
      .cls-1 {
        fill: #d1d1d1;
      }
    </style>
  </defs>
  <title>sprites</title>
  <path class="cls-1" d="M34.15,1.41H5.84A4.27,4.27,0,0,0,1.5,5.75v28.5a4.39,4.39,0,0,0,4.34,4.34H34.15a4.27,4.27,0,0,0,4.34-4.34V5.75A4.16,4.16,0,0,0,34.15,1.41Zm-7,5.28A1.09,1.09,0,0,1,28.3,5.56h5.1A1.09,1.09,0,0,1,34.53,6.7v5.1a1.09,1.09,0,0,1-1.13,1.13H28.3a1.09,1.09,0,0,1-1.13-1.13V6.7ZM20,12.92a7.17,7.17,0,1,1-7.17,7.17A7.17,7.17,0,0,1,20,12.92ZM34.53,33.3a1.09,1.09,0,0,1-1.13,1.13H6.6A1.09,1.09,0,0,1,5.46,33.3V17.07h3.4c0,0.94-.19,1.89-0.19,3a11.32,11.32,0,0,0,22.65,0,16.51,16.51,0,0,0-.38-3h3.4V33.3h0.19Z"/>
</svg>
