<svg id="Layer_1" data-name="Layer 1" xmlns="http://www.w3.org/2000/svg" width="40" height="40" viewBox="0 0 40 40">
  <defs>
    <style>
      .cls-1 {
        fill: #d1d1d1;
      }
    </style>
  </defs>
  <title>sprites</title>
  <path class="cls-1" d="M38.5,8.73a16.24,16.24,0,0,1-4.32,1.13,8.13,8.13,0,0,0,3.38-4.13,14.49,14.49,0,0,1-4.7,1.88,7.81,7.81,0,0,0-5.63-2.44,7.53,7.53,0,0,0-7.51,7.51,5.2,5.2,0,0,0,.19,1.69,20.87,20.87,0,0,1-15.4-7.7,6,6,0,0,0-1.13,3.76,7.26,7.26,0,0,0,3.38,6.2,7.65,7.65,0,0,1-3.38-.94v0.19a7.47,7.47,0,0,0,6,7.32,7,7,0,0,1-2.07.19,4.14,4.14,0,0,1-1.5-.19,7.7,7.7,0,0,0,6.95,5.26,14.94,14.94,0,0,1-9.39,3.19,7,7,0,0,1-1.88-.19A22.09,22.09,0,0,0,13,34.84c13.9,0,21.41-11.46,21.41-21.41V12.49A10.09,10.09,0,0,0,38.5,8.73Z"/>
</svg>
