<svg id="Layer_1" data-name="Layer 1" xmlns="http://www.w3.org/2000/svg" width="40" height="40" viewBox="0 0 40 40">
  <defs>
    <style>
      .cls-1 {
        opacity: 0.12;
        isolation: isolate;
      }

      .cls-2 {
        fill: #d1d1d1;
      }
    </style>
  </defs>
  <title>sprites</title>
  <g>
    <path id="The_Sharpness" data-name="The Sharpness" class="cls-1" d="M15.89,14.49l8.6,5.79,1.31-.56Z"/>
    <g id="Lozenge">
      <path class="cls-2" d="M37.75,12.62a7.73,7.73,0,0,0-1.49-3.55,4.63,4.63,0,0,0-3.74-1.49c-5-.37-12.71-0.37-12.71-0.37h0s-7.66,0-12.71.37A4.83,4.83,0,0,0,3.37,9.07a7.73,7.73,0,0,0-1.49,3.55,55.25,55.25,0,0,0-.37,6v2.8a55.25,55.25,0,0,0,.37,6,7.73,7.73,0,0,0,1.49,3.55,5.13,5.13,0,0,0,4.11,1.49C10.47,32.8,20,32.8,20,32.8s7.66,0,12.89-.37a4.83,4.83,0,0,0,3.74-1.49,7.73,7.73,0,0,0,1.49-3.55,55.25,55.25,0,0,0,.37-6V18.6A56,56,0,0,1,37.75,12.62ZM15.89,24.77V14.49l9.9,5.23Z"/>
    </g>
  </g>
</svg>
