<svg id="Layer_1" data-name="Layer 1" xmlns="http://www.w3.org/2000/svg" width="45" height="45" viewBox="0 0 45 45">
  <defs>
    <style>
      .cls-1 {
        fill: #adaaaa;
      }

      .cls-1, .cls-2 {
        fill-rule: evenodd;
      }

      .cls-2 {
        fill: #fff;
      }
    </style>
  </defs>
  <title>sprites</title>
  <g>
    <path class="cls-1" d="M22.5,0.9A21.6,21.6,0,1,0,44.1,22.5,21.63,21.63,0,0,0,22.5.9Z"/>
    <g>
      <path class="cls-2" d="M22.79,27.23a16.78,16.78,0,0,0,1.67.62A4,4,0,0,0,26.3,28a3,3,0,0,0,2-1.39,2.44,2.44,0,0,0,.17-1.39,1.48,1.48,0,0,0-.56-0.34c-0.29-.15-1.73-0.85-2-1a0.46,0.46,0,0,0-.66.15c-0.19.29-.75,1-0.92,1.15a0.45,0.45,0,0,1-.63.07,8,8,0,0,1-2.35-1.45,8.8,8.8,0,0,1-1.62-2,0.43,0.43,0,0,1,.13-0.6c0.13-.13.29-0.34,0.44-0.51a2,2,0,0,0,.29-0.49,0.54,0.54,0,0,0,0-.51c-0.07-.15-0.66-1.58-0.9-2.17A0.58,0.58,0,0,0,19,17H18.41a1.07,1.07,0,0,0-.78.37,3.28,3.28,0,0,0-1,2.44,5.68,5.68,0,0,0,1.19,3A13,13,0,0,0,22.79,27.23Z"/>
      <path class="cls-2" d="M17,32.62A11.63,11.63,0,0,0,22.54,34H23v0A11.79,11.79,0,0,0,34.46,22.38a11.79,11.79,0,0,0-3.65-8.25,11.69,11.69,0,0,0-18.4,14.09l-1.66,6Zm5.59-19.94a9.66,9.66,0,1,1,0,19.32h0a9.64,9.64,0,0,1-4.95-1.3l-0.35-.15-3.68,1,1-3.59-0.23-.37A9.72,9.72,0,0,1,22.55,12.68Z"/>
    </g>
  </g>
</svg>
