<svg id="Layer_1" data-name="Layer 1" xmlns="http://www.w3.org/2000/svg" width="45" height="45" viewBox="0 0 45 45">
  <defs>
    <style>
      .cls-1 {
        fill: #adaaaa;
      }

      .cls-2 {
        fill: #fff;
      }
    </style>
  </defs>
  <title>sprites</title>
  <path class="cls-1" d="M22.5,44.1A21.6,21.6,0,1,1,44.1,22.5,21.63,21.63,0,0,1,22.5,44.1Z"/>
  <path class="cls-2" d="M22.31,12.71A9.79,9.79,0,1,0,32.1,22.5,9.81,9.81,0,0,0,22.31,12.71Zm0,18.28a8.48,8.48,0,0,1-2.51-.38,9.49,9.49,0,0,0,1.05-2.22l0.53-2a2.27,2.27,0,0,0,1.94,1c2.56,0,4.4-2.35,4.4-5.28a5,5,0,0,0-5.23-4.9c-3.66,0-5.61,2.46-5.61,5.13a3.8,3.8,0,0,0,1.72,3.29c0.16,0.07.25,0,.28-0.11l0.24-1a0.25,0.25,0,0,0-.06-0.24,3.3,3.3,0,0,1-.63-1.94,3.67,3.67,0,0,1,3.83-3.68,3.35,3.35,0,0,1,3.54,3.45c0,2.3-1.16,3.89-2.67,3.89a1.23,1.23,0,0,1-1.26-1.53,17.09,17.09,0,0,0,.7-2.83,1.07,1.07,0,0,0-1.07-1.2A1.83,1.83,0,0,0,20,22.49a3.06,3.06,0,0,0,.25,1.26l-1,4.22a8.14,8.14,0,0,0,0,2.43A8.49,8.49,0,1,1,22.31,31Z"/>
</svg>
