<svg id="Layer_1" data-name="Layer 1" xmlns="http://www.w3.org/2000/svg" width="40" height="40" viewBox="0 0 40 40">
  <defs>
    <style>
      .cls-1 {
        fill: #d1d1d1;
      }
    </style>
  </defs>
  <title>sprites</title>
  <path id="White" class="cls-1" d="M36.76,1.32H3.59A2.1,2.1,0,0,0,1.5,3.41V36.59a2.1,2.1,0,0,0,2.09,2.09H21.41V24.27H16.48V18.58h4.93V14.41c0-4.74,3-7.39,7.2-7.39C30.7,7,32.4,7.2,33,7.2v5.12h-3c-2.28,0-2.84,1.14-2.84,2.65v3.6h5.5l-0.76,5.69H26.91V38.68h9.48a2.1,2.1,0,0,0,2.09-2.09V3.41A1.71,1.71,0,0,0,36.76,1.32Z"/>
</svg>
