<svg id="Layer_1" data-name="Layer 1" xmlns="http://www.w3.org/2000/svg" width="45" height="45" viewBox="0 0 45 45">
  <defs>
    <style>
      .cls-1 {
        fill: #adaaaa;
      }

      .cls-2 {
        fill: #fff;
      }
    </style>
  </defs>
  <title>sprites</title>
  <path class="cls-1" d="M22.5,44.1A21.6,21.6,0,1,1,44.1,22.5,21.63,21.63,0,0,1,22.5,44.1Z"/>
  <path class="cls-2" d="M33.62,21.57H31.3V19.26H29.45v2.32H27.13v1.85h2.32v2.32H31.3V23.43h2.32M18.79,21.11V24h4a3.8,3.8,0,0,1-4,3,4.52,4.52,0,0,1,0-9,4.06,4.06,0,0,1,2.87,1.12h0L23.75,17a7.12,7.12,0,0,0-5-1.93,7.41,7.41,0,0,0,0,14.83c4.28,0,7.12-3,7.12-7.25a8.45,8.45,0,0,0-.14-1.56h-7Z"/>
</svg>
