<svg id="Layer_1" data-name="Layer 1" xmlns="http://www.w3.org/2000/svg" width="45" height="45" viewBox="0 0 45 45">
  <defs>
    <style>
      .cls-1 {
        fill: #adaaaa;
      }

      .cls-2 {
        fill: #fff;
      }
    </style>
  </defs>
  <title>sprites</title>
  <path class="cls-1" d="M23,44.6A21.6,21.6,0,1,1,44.6,23,21.63,21.63,0,0,1,23,44.6Z"/>
  <path class="cls-2" d="M31.41,13.13H14.59a1.44,1.44,0,0,0-1.46,1.42V31.45a1.44,1.44,0,0,0,1.46,1.42H31.41a1.44,1.44,0,0,0,1.46-1.42V14.55A1.44,1.44,0,0,0,31.41,13.13ZM19,30H16.06V20.53H19V30ZM17.52,19.24a1.7,1.7,0,1,1,1.7-1.7A1.7,1.7,0,0,1,17.52,19.24ZM29.95,30H27V25.37c0-1.09,0-2.5-1.52-2.5s-1.76,1.19-1.76,2.42V30H20.82V20.53h2.81v1.29h0a3.08,3.08,0,0,1,2.77-1.52c3,0,3.51,2,3.51,4.49V30Z"/>
</svg>
