<svg id="Layer_1" data-name="Layer 1" xmlns="http://www.w3.org/2000/svg" width="45" height="45" viewBox="0 0 45 45">
  <defs>
    <style>
      .cls-1 {
        fill: #adaaaa;
      }

      .cls-2 {
        fill: #fff;
      }
    </style>
  </defs>
  <title>sprites</title>
  <path class="cls-1" d="M22.5,44.1A21.6,21.6,0,1,1,44.1,22.5,21.63,21.63,0,0,1,22.5,44.1Z"/>
  <path class="cls-2" d="M33,16a8.64,8.64,0,0,1-2.48.68,4.34,4.34,0,0,0,1.9-2.39,8.66,8.66,0,0,1-2.75,1,4.33,4.33,0,0,0-7.37,3.94,12.28,12.28,0,0,1-8.91-4.52,4.33,4.33,0,0,0,1.34,5.77,4.31,4.31,0,0,1-2-.54V20a4.33,4.33,0,0,0,3.47,4.24,4.33,4.33,0,0,1-2,.07,4.33,4.33,0,0,0,4,3A8.68,8.68,0,0,1,13,29.18a8.77,8.77,0,0,1-1-.06A12.3,12.3,0,0,0,30.89,18.76q0-.28,0-0.56A8.79,8.79,0,0,0,33,16Z"/>
</svg>
