<svg id="Layer_1" data-name="Layer 1" xmlns="http://www.w3.org/2000/svg" width="45" height="45" viewBox="0 0 45 45">
  <defs>
    <style>
      .cls-1 {
        fill: #adaaaa;
      }

      .cls-2 {
        fill: #fff;
      }
    </style>
  </defs>
  <title>sprites</title>
  <path class="cls-1" d="M22.5,44.1A21.6,21.6,0,1,1,44.1,22.5,21.63,21.63,0,0,1,22.5,44.1Z"/>
  <path class="cls-2" d="M30.91,12.63H14.09a1.44,1.44,0,0,0-1.46,1.42V30.95a1.44,1.44,0,0,0,1.46,1.42H30.91a1.44,1.44,0,0,0,1.46-1.42V14.05A1.44,1.44,0,0,0,30.91,12.63ZM18.49,29.45H15.56V20h2.93v9.42ZM17,18.74a1.7,1.7,0,1,1,1.7-1.7A1.7,1.7,0,0,1,17,18.74ZM29.45,29.45H26.52V24.87c0-1.09,0-2.5-1.52-2.5s-1.76,1.19-1.76,2.42v4.66H20.32V20h2.81v1.29h0a3.08,3.08,0,0,1,2.77-1.52c3,0,3.51,2,3.51,4.49v5.17Z"/>
</svg>
