<svg id="Layer_1" data-name="Layer 1" xmlns="http://www.w3.org/2000/svg" width="45" height="45" viewBox="0 0 45 45">
  <defs>
    <style>
      .cls-1 {
        fill: #adaaaa;
      }

      .cls-2 {
        fill: #fff;
      }
    </style>
  </defs>
  <title>sprites</title>
  <path class="cls-1" d="M22.5,44.1A21.6,21.6,0,1,1,44.1,22.5,21.63,21.63,0,0,1,22.5,44.1Z"/>
  <path class="cls-2" d="M19.52,33.2V22H17.74V18.69h1.78V18.12a6.86,6.86,0,0,1,1.73-4.87A5.32,5.32,0,0,1,25,11.8a7.68,7.68,0,0,1,2.26.3L27.1,15.57a4.33,4.33,0,0,0-1.37-.21c-1.39,0-2,1.16-2,2.58v0.74h2.73V22h-2.7V33.2H19.52Z"/>
</svg>
