<svg id="Layer_1" data-name="Layer 1" xmlns="http://www.w3.org/2000/svg" width="40" height="40" viewBox="0 0 40 40">
  <defs>
    <style>
      .cls-1 {
        fill: #d1d1d1;
      }
    </style>
  </defs>
  <title>sprites</title>
  <path class="cls-1" d="M15.85,14.53a1.2,1.2,0,0,0-.94,1.13s-0.38,6-.38,7.74c0,2.64.19,4.34,0.19,4.34a0.86,0.86,0,0,0,.94.76,0.86,0.86,0,0,0,.94-0.76,12.1,12.1,0,0,0,.76-4.53c0-3-.19-6.8-0.57-7.55C16.6,14.9,16.41,14.53,15.85,14.53Zm-3.4.57a0.84,0.84,0,0,0-.76.94s-0.38,5.66-.38,7.36c0,2.64.19,4.34,0.19,4.34a0.86,0.86,0,0,0,.94.76,0.86,0.86,0,0,0,.94-0.76s0.19-1.7.19-4.34c0-3-.38-7.36-0.38-7.36A0.84,0.84,0,0,0,12.45,15.09Zm-3.4,2.83a0.84,0.84,0,0,0-.76.94,39.75,39.75,0,0,0-.38,4.53,22,22,0,0,0,.38,4.34,0.86,0.86,0,0,0,.94.76,0.86,0.86,0,0,0,.94-0.76,19.8,19.8,0,0,0,.38-4.34,20.77,20.77,0,0,0-.38-4.53C9.81,18.49,9.62,17.92,9.05,17.92Zm-3.4-.57a1,1,0,0,0-.94.94s-0.19,3.21-.19,5.1a37.15,37.15,0,0,0,.19,4.15,1,1,0,0,0,.94.94,1,1,0,0,0,.94-0.94,39,39,0,0,0,.19-4.34,27.59,27.59,0,0,0-.38-4.91A1,1,0,0,0,5.65,17.36ZM1.88,19.81a0.37,0.37,0,0,0-.38.38V27s0,0.57.38,0.57c0.57,0,1.13-1.32,1.13-4C3.2,21.51,2.44,19.81,1.88,19.81Zm31.53-1.7a2.8,2.8,0,0,0-1.32.19c-0.76-3.78-4.72-6.8-8.87-6.8a7.93,7.93,0,0,0-4.91,2.27v14a0.74,0.74,0,0,0,.76.76H33.4a5.37,5.37,0,0,0,5.1-5.29A5.08,5.08,0,0,0,33.4,18.11Z"/>
</svg>
